<svg viewBox="50 50 500 500" width="600" height="600" xmlns="http://www.w3.org/2000/svg">
  <defs>
    <radialGradient id="y_fade" cx="50%" cy="50%" r="50%">
      <stop offset="0%" stop-color="#ffffb2" />
      <stop offset="85.7%" stop-color="#ffffb2" /> <!-- 120/140=85.7%  -->
      <stop offset="100%" stop-color="#ffffb2" stop-opacity="0" />
    </radialGradient>
    <radialGradient id="r_fade" cx="50%" cy="50%" r="50%">
      <stop offset="0%" stop-color="#ff6c6c" />
      <stop offset="85.7%" stop-color="#ff6c6c" /> <!-- 120/140=85.7%  -->
      <stop offset="100%" stop-color="#ff6c6c" stop-opacity="0" />
    </radialGradient>
    <radialGradient id="g_fade" cx="50%" cy="50%" r="50%">
      <stop offset="0%" stop-color="#b8b4b4" />
      <stop offset="85.7%" stop-color="#b8b4b4" /> <!-- 120/140=85.7%  -->
      <stop offset="100%" stop-color="#b8b4b4" stop-opacity="0" />
    </radialGradient>
    
    <radialGradient id="b_to_r" cx="158.58" cy="158.58" r="140" fx="158.58" fy="158.58" gradientUnits="userSpaceOnUse">
      <stop offset="85.7%" stop-color="
#b8b4b4"/>
      <stop offset="100%" stop-color="#ffb4b4"/>
    </radialGradient>
    <clipPath id="circleClip">
      <circle cx="300" cy="300" r="200" />
    </clipPath>
  </defs>
  
  <!-- Background -->
  <rect x="50" y="50" width="100%" height="100%" fill="white"/>

  <!-- Labels -->
  <text x="80" y="300" font-size="14" text-anchor="middle" dominant-baseline="middle" transform="rotate(270, 80, 300)" fill="#333333">Negative Valence</text>
  <text x="520" y="300" font-size="14" text-anchor="middle" dominant-baseline="middle" transform="rotate(90, 520, 300)" fill="#333333">Positive Valence</text>

  <text x="300" y="80" font-size="14" text-anchor="middle" dominant-baseline="middle" fill="#333333">Active/Alert</text>
  <text x="461.4" y="138.6" font-size="14" text-anchor="middle" dominant-baseline="middle" transform="rotate(45, 461.4, 138.6)" fill="#ff1e1e">Tṛṣṇā</text>
  <text x="461.4" y="461.4" font-size="14" text-anchor="middle" dominant-baseline="middle" transform="rotate(-45, 461.4, 461.4)" fill="blue">Sāttvika</text>
  <text x="300" y="520" font-size="14" text-anchor="middle" dominant-baseline="middle" fill="#333333">Passive/Calm</text>
  <text x="138.6" y="461.4" font-size="14" text-anchor="middle" dominant-baseline="middle" transform="rotate(45, 138.6, 461.4)" fill="#ff1e1e">Duḥkha</text>

  <text x="138.6" y="138.6" font-size="14" text-anchor="middle" dominant-baseline="middle" transform="rotate(-45, 138.6, 138.6)" fill="#333333">Tāmasika</text>

  <!-- Rajasik Areas -->
  <path d="
    M 265 103
    A 140 140 0 0 1 103 265
    A 200 200 0 0 0 335 496.9
    A 120 120 0 0 1 496.9 335
    A 200 200 0 0 0 265 103
    Z"
    stroke-width="0" fill="#ffb4b4" />
      <circle cx="158.58" cy="441.42" r="120" stroke-width="0" clip-path="url(#circleClip)" fill="url(#r_fade)" />
      <circle cx="441.42" cy="158.58" r="120" stroke-width="0" clip-path="url(#circleClip)" fill="url(#r_fade)"/>

  <!-- Tamasik Area -->
    <circle cx="158.58" cy="158.58" r="140" stroke-width="0" clip-path="url(#circleClip)" fill="url(#g_fade)"/>
    <circle cx="158.58" cy="158.58" r="140" stroke-width="0" clip-path="url(#circleClip)" fill="url(#g_fade)"/>
  
  <!-- Sattvik Area -->
  <circle cx="441.42" cy="441.42" r="140" stroke-width="0" clip-path="url(#circleClip)" fill="url(#y_fade)"/>

  <!-- Large circle -->
  <circle cx="300" cy="300" r="200" stroke="grey" stroke-width="1" fill="none"/>

    <!-- Axes -->
  <line x1="300" y1="100" x2="300" y2="500" stroke="grey" stroke-width=".5" stroke-dasharray="5,2"/>
  <line x1="100" y1="300" x2="500" y2="300" stroke="grey" stroke-width=".5" stroke-dasharray="5,2"/>
  <line x1="158.6" y1="158.6" x2="441.4" y2="441.4" stroke="grey" stroke-width=".5" stroke-dasharray="5,2"/>
  <line x1="158.6" y1="441.4" x2="441.4" y2="158.6" stroke="grey" stroke-width=".5" stroke-dasharray="5,2"/>
  
  <!-- Rajasik Emotions -->
<circle cx="160.9" cy="443.71" r="3" fill="orange"/>
<text x="160.9" y="438.71" font-size="8" text-anchor="middle" dominant-baseline="left" fill="#333333">insecure</text>
<circle cx="139.63" cy="419.5" r="3" fill="orange"/>
<text x="143.63" y="415.5" font-size="8" text-anchor="left" dominant-baseline="hanging" fill="#333333">lonely</text>
<circle cx="492.49" cy="245.7" r="3" fill="orange"/>
<text x="489.49" y="242.7" font-size="8" text-anchor="end" dominant-baseline="left" fill="#333333">elated</text>
<circle cx="165.63" cy="448.14" r="3" fill="orange"/>
<text x="169.63" y="445.14" font-size="8" text-anchor="left" dominant-baseline="hanging" fill="#333333">anxious</text>
<circle cx="455.76" cy="174.54" r="3" fill="orange"/>
<text x="452.76" y="176.54" font-size="8" text-anchor="end" dominant-baseline="hanging" fill="#333333">self-confident</text>
<circle cx="394.04" cy="123.49" r="3" fill="orange"/>
<text x="398.04" y="124.49" font-size="8" text-anchor="left" dominant-baseline="left" fill="#333333">adventurous</text>
<circle cx="427.32" cy="145.76" r="3" fill="orange"/>
<text x="424.32" y="146.76" font-size="8" text-anchor="end" dominant-baseline="hanging" fill="#333333">triumphant</text>
<circle cx="461.92" cy="182.6" r="3" fill="orange"/>
<text x="458.92" y="184.6" font-size="8" text-anchor="end" dominant-baseline="hanging" fill="#333333">courageous</text>
<circle cx="439.3" cy="156.49" r="3" fill="orange"/>
<text x="442.3" y="158.49" font-size="8" text-anchor="left" dominant-baseline="left" fill="#333333">Excited</text>
<circle cx="245.36" cy="492.39" r="3" fill="orange"/>
<text x="248.36" y="489.39" font-size="8" text-anchor="left" dominant-baseline="left" fill="#333333">doubtful</text>
<circle cx="376" cy="115" r="3" fill="orange"/>
<text x="379" y="109" font-size="8" text-anchor="left" dominant-baseline="left" fill="#333333">aroused</text>
<circle cx="199.24" cy="472.76" r="3" fill="orange"/>
<text x="202.24" y="469.76" font-size="8" text-anchor="left" dominant-baseline="left" fill="#333333">dejected</text>
<circle cx="304.92" cy="499.94" r="3" fill="orange"/>
<text x="307.92" y="496.94" font-size="8" text-anchor="left" dominant-baseline="left" fill="#333333">sleepy</text>
<circle cx="296.79" cy="499.97" r="3" fill="orange"/>
<text x="293.79" y="490.97" font-size="8" text-anchor="end" dominant-baseline="hanging" fill="#333333">tired</text>
<circle cx="385.01" cy="120.34" r="3" fill="orange"/>
<text x="388.01" y="116.34" font-size="8" text-anchor="left" dominant-baseline="left" fill="#333333">Astonished</text>
<circle cx="125.05" cy="393.58" r="3" fill="orange"/>
<text x="123.05" y="388.58" font-size="8" text-anchor="left" dominant-baseline="left" fill="#333333">gloomy</text>
<circle cx="235.12" cy="486.94" r="3" fill="orange"/>
<text x="238.12" y="483.94" font-size="8" text-anchor="left" dominant-baseline="left" fill="#333333">droopy</text>
<circle cx="278.37" cy="107.07" r="3" fill="orange"/>
<text x="282.37" y="108.07" font-size="8" text-anchor="left" dominant-baseline="left" fill="#333333">bellicose</text>
<circle cx="492.08" cy="273.66" r="3" fill="orange"/>
<text x="489.08" y="273.66" font-size="8" text-anchor="end" dominant-baseline="hanging" fill="#333333">joyous</text>
<circle cx="478.37" cy="226.98" r="3" fill="orange"/>
<text x="475.37" y="223.98" font-size="8" text-anchor="end" dominant-baseline="left" fill="#333333">delighted</text>
<circle cx="219.7" cy="473.66" r="3" fill="orange"/>
<text x="222.7" y="473.66" font-size="8" text-anchor="left" dominant-baseline="hanging" fill="#333333">sad</text>
<circle cx="138.33" cy="400.43" r="3" fill="orange"/>
<text x="141.33" y="400.43" font-size="8" text-anchor="left" dominant-baseline="hanging" fill="#333333">desperate</text>
<circle cx="113.06" cy="327.19" r="3" fill="orange"/>
<text x="116.06" y="327.19" font-size="8" text-anchor="left" dominant-baseline="hanging" fill="#333333">miserable</text>
<circle cx="137.04" cy="393.58" r="3" fill="orange"/>
<text x="142.04" y="393.58" font-size="8" text-anchor="left" dominant-baseline="middle" fill="#333333">depressed</text>
<circle cx="485.22" cy="313.49" r="3" fill="orange"/>
<text x="482.22" y="310.49" font-size="8" text-anchor="end" dominant-baseline="right" fill="#333333">feel well</text>
<circle cx="115.2" cy="293.79" r="3" fill="orange"/>
<text x="118.2" y="290.79" font-size="8" text-anchor="left" dominant-baseline="left" fill="#333333">startled</text>
<circle cx="481.8" cy="266.81" r="3" fill="orange"/>
<text x="478.8" y="266.81" font-size="8" text-anchor="end" dominant-baseline="hanging" fill="#333333">happy</text>
<circle cx="134.9" cy="380.3" r="3" fill="orange"/>
<text x="137.9" y="377.3" font-size="8" text-anchor="left" dominant-baseline="left" fill="#333333">Sad</text>
<circle cx="185.01" cy="440.26" r="3" fill="orange"/>
<text x="190.01" y="435.26" font-size="8" text-anchor="left" dominant-baseline="hanging" fill="#333333">wavering</text>
<circle cx="285.22" cy="120.34" r="3" fill="orange"/>
<text x="290.22" y="119.34" font-size="8" text-anchor="left" dominant-baseline="left" fill="#333333">alarmed</text>
<circle cx="478.37" cy="320.34" r="3" fill="orange"/>
<text x="475.37" y="317.34" font-size="8" text-anchor="end" dominant-baseline="left" fill="#333333">pleased</text>
<circle cx="345.18" cy="127.62" r="3" fill="orange"/>
<text x="348.18" y="124.62" font-size="8" text-anchor="left" dominant-baseline="left" fill="#333333">lusting</text>
<circle cx="231.69" cy="460.39" r="3" fill="orange"/>
<text x="234.69" y="457.39" font-size="8" text-anchor="left" dominant-baseline="left" fill="#333333">Bored</text>
<circle cx="296.36" cy="127.19" r="3" fill="orange"/>
<text x="299.36" y="127.19" font-size="8" text-anchor="left" dominant-baseline="hanging" fill="#333333">tense</text>
<circle cx="138.33" cy="307.07" r="3" fill="orange"/>
<text x="141.33" y="307.07" font-size="8" text-anchor="left" dominant-baseline="hanging" fill="#333333">disappointed</text>
<circle cx="450.11" cy="247.11" r="3" fill="orange"/>
<text x="447.11" y="244.11" font-size="8" text-anchor="end" dominant-baseline="left" fill="#333333">determined</text>
<circle cx="238.54" cy="446.68" r="3" fill="orange"/>
<text x="241.54" y="443.68" font-size="8" text-anchor="left" dominant-baseline="left" fill="#333333">hesitant</text>
<circle cx="385.01" cy="167.88" r="3" fill="orange"/>
<text x="388.01" y="164.88" font-size="8" text-anchor="left" dominant-baseline="left" fill="#333333">ambitious</text>
<circle cx="165.31" cy="373.45" r="3" fill="orange"/>
<text x="168.31" y="370.45" font-size="8" text-anchor="left" dominant-baseline="left" fill="#333333">uncomfortable</text>
<circle cx="185.01" cy="386.72" r="3" fill="orange"/>
<text x="188.01" y="383.72" font-size="8" text-anchor="left" dominant-baseline="left" fill="#333333">despondent</text>
<circle cx="338.33" cy="167.88" r="3" fill="orange"/>
<text x="341.33" y="164.88" font-size="8" text-anchor="left" dominant-baseline="left" fill="#333333">conceited</text>
<circle cx="236.83" cy="420.13" r="3" fill="orange"/>
<text x="239.83" y="417.13" font-size="8" text-anchor="left" dominant-baseline="left" fill="#333333">embarassed</text>
<circle cx="211.56" cy="400.43" r="3" fill="orange"/>
<text x="214.56" y="400.43" font-size="8" text-anchor="left" dominant-baseline="hanging" fill="#333333">ashamed</text>
<circle cx="292.08" cy="433.4" r="3" fill="orange"/>
<text x="289.08" y="430.4" font-size="8" text-anchor="end" dominant-baseline="left" fill="#333333">melancholic</text>
<circle cx="432.12" cy="293.79" r="3" fill="orange"/>
<text x="435.12" y="290.79" font-size="8" text-anchor="left" dominant-baseline="left" fill="#333333">interested</text>
<circle cx="364.88" cy="187.15" r="3" fill="orange"/>
<text x="361.88" y="189.15" font-size="8" text-anchor="end" dominant-baseline="hanging" fill="#333333">feeling superior</text>
<circle cx="178.59" cy="333.62" r="3" fill="orange"/>
<text x="181.59" y="330.62" font-size="8" text-anchor="left" dominant-baseline="left" fill="#333333">dissatisfied</text>
<circle cx="402.57" cy="233.83" r="3" fill="orange"/>
<text x="405.57" y="230.83" font-size="8" text-anchor="left" dominant-baseline="left" fill="#333333">enthusiastic</text>
<circle cx="385.44" cy="213.7" r="3" fill="orange"/>
<text x="388.44" y="210.7" font-size="8" text-anchor="left" dominant-baseline="left" fill="#333333">convinced</text>
<circle cx="307.92" cy="420.13" r="3" fill="orange"/>
<text x="310.92" y="417.13" font-size="8" text-anchor="left" dominant-baseline="left" fill="#333333">pensive</text>
<circle cx="411.99" cy="260.39" r="3" fill="orange"/>
<text x="414.99" y="257.39" font-size="8" text-anchor="left" dominant-baseline="left" fill="#333333">amused</text>
<circle cx="219.27" cy="386.72" r="3" fill="orange"/>
<text x="222.27" y="386.72" font-size="8" text-anchor="left" dominant-baseline="hanging" fill="#333333">guilt</text>
<circle cx="253.96" cy="400.43" r="3" fill="orange"/>
<text x="256.96" y="397.43" font-size="8" text-anchor="left" dominant-baseline="left" fill="#333333">languid</text>
<circle cx="385.44" cy="240.26" r="3" fill="orange"/>
<text x="382.44" y="237.26" font-size="8" text-anchor="end" dominant-baseline="top" fill="#333333">light-hearted</text>
<circle cx="218.42" cy="346.9" r="3" fill="orange"/>
<text x="221.42" y="343.9" font-size="8" text-anchor="left" dominant-baseline="left" fill="#333333">taken aback</text>
<circle cx="378.59" cy="313.49" r="3" fill="orange"/>
<text x="381.59" y="310.49" font-size="8" text-anchor="left" dominant-baseline="left" fill="#333333">impressed</text>
<circle cx="365.31" cy="273.66" r="3" fill="orange"/>
<text x="368.31" y="270.66" font-size="8" text-anchor="left" dominant-baseline="left" fill="#333333">passionate</text>
<circle cx="285.22" cy="367.02" r="3" fill="orange"/>
<text x="288.22" y="364.02" font-size="8" text-anchor="left" dominant-baseline="left" fill="#333333">worried</text>
<circle cx="365.31" cy="286.94" r="3" fill="orange"/>
<text x="368.31" y="283.94" font-size="8" text-anchor="left" dominant-baseline="left" fill="#333333">expectant</text>
<circle cx="292.08" cy="240.26" r="3" fill="orange"/>
<text x="295.08" y="237.26" font-size="8" text-anchor="left" dominant-baseline="left" fill="#333333">impatient</text>
<circle cx="259.53" cy="327.19" r="3" fill="orange"/>
<text x="262.53" y="324.19" font-size="8" text-anchor="left" dominant-baseline="left" fill="#333333">apathetic</text>
<circle cx="331.91" cy="327.19" r="3" fill="orange"/>
<text x="334.91" y="324.19" font-size="8" text-anchor="left" dominant-baseline="left" fill="#333333">astonished</text>
<circle cx="258.67" cy="293.79" r="3" fill="orange"/>
<text x="261.67" y="290.79" font-size="8" text-anchor="left" dominant-baseline="left" fill="#333333">bored</text>
<circle cx="310.49" cy="260.39" r="3" fill="orange"/>
<text x="313.49" y="257.39" font-size="8" text-anchor="left" dominant-baseline="left" fill="#333333">excited</text>

<!-- Tamasik Emotions -->
  <circle cx="188.07" cy="134.26" r="3" fill="orange"/>
<text x="191.07" y="131.26" font-size="8" text-anchor="left" dominant-baseline="left" fill="#333333">hateful</text>
<circle cx="139.26" cy="180.99" r="3" fill="orange"/>
<text x="142.26" y="177.99" font-size="8" text-anchor="left" dominant-baseline="left" fill="#333333">angry</text>
<circle cx="138.33" cy="213.7" r="3" fill="orange"/>
<text x="141.33" y="210.7" font-size="8" text-anchor="left" dominant-baseline="left" fill="#333333">loathing</text>
<circle cx="158.46" cy="187.15" r="3" fill="orange"/>
<text x="161.46" y="184.15" font-size="8" text-anchor="left" dominant-baseline="left" fill="#333333">distressed</text>
<circle cx="185.01" cy="167.02" r="3" fill="orange"/>
<text x="188.01" y="164.02" font-size="8" text-anchor="left" dominant-baseline="left" fill="#333333">contemptuous</text>
<circle cx="244.97" cy="133.62" r="3" fill="orange"/>
<text x="247.97" y="130.62" font-size="8" text-anchor="left" dominant-baseline="left" fill="#333333">envious</text>
<circle cx="138.33" cy="247.11" r="3" fill="orange"/>
<text x="141.33" y="244.11" font-size="8" text-anchor="left" dominant-baseline="left" fill="#333333">bitter</text>
<circle cx="165.31" cy="200.43" r="3" fill="orange"/>
<text x="168.31" y="197.43" font-size="8" text-anchor="left" dominant-baseline="left" fill="#333333">disgusted</text>
<circle cx="278.37" cy="140.47" r="3" fill="orange"/>
<text x="281.37" y="140.47" font-size="8" text-anchor="left" dominant-baseline="hanging" fill="#333333">Angry</text>
<circle cx="211.56" cy="167.02" r="3" fill="orange"/>
<text x="214.56" y="167.02" font-size="8" text-anchor="left" dominant-baseline="hanging" fill="#333333">annoyed</text>
<circle cx="152.03" cy="260.39" r="3" fill="orange"/>
<text x="155.03" y="257.39" font-size="8" text-anchor="left" dominant-baseline="left" fill="#333333">insulted</text>
<circle cx="266.38" cy="153.75" r="3" fill="orange"/>
<text x="269.38" y="153.75" font-size="8" text-anchor="left" dominant-baseline="hanging" fill="#333333">enraged</text>
<circle cx="165.31" cy="233.83" r="3" fill="orange"/>
<text x="168.31" y="230.83" font-size="8" text-anchor="left" dominant-baseline="left" fill="#333333">discontented</text>
<circle cx="180.3" cy="220.13" r="3" fill="orange"/>
<text x="183.3" y="217.13" font-size="8" text-anchor="left" dominant-baseline="left" fill="#333333">frustrated</text>
<circle cx="285.22" cy="187.15" r="3" fill="orange"/>
<text x="288.22" y="184.15" font-size="8" text-anchor="left" dominant-baseline="left" fill="#333333">jealous</text>
<circle cx="251.82" cy="206.85" r="3" fill="orange"/>
<text x="254.82" y="203.85" font-size="8" text-anchor="left" dominant-baseline="left" fill="#333333">indignant</text>
<circle cx="205.14" cy="280.51" r="3" fill="orange"/>
<text x="208.14" y="277.51" font-size="8" text-anchor="left" dominant-baseline="left" fill="#333333">distrustful</text>
<circle cx="236.83" cy="247.11" r="3" fill="orange"/>
<text x="239.83" y="244.11" font-size="8" text-anchor="left" dominant-baseline="left" fill="#333333">suspicious</text>
<circle cx="218.42" cy="140.47" r="3" fill="orange"/>
<text x="221.42" y="140.47" font-size="8" text-anchor="left" dominant-baseline="hanging" fill="#333333">afraid</text>
<circle cx="244.97" cy="120.34" r="3" fill="orange"/>
<text x="247.97" y="117.34" font-size="8" text-anchor="left" dominant-baseline="left" fill="#333333">hostile</text>
<circle cx="178.59" cy="153.75" r="3" fill="orange"/>
<text x="181.59" y="150.75" font-size="8" text-anchor="left" dominant-baseline="left" fill="#333333">defiant</text>

  <!-- Sattvik Emotions -->
<circle cx="491.4" cy="358.02" r="3" fill="orange"/>
<text x="486.4" y="358.02" font-size="8" text-anchor="end" dominant-baseline="hanging" fill="blue">content</text>
<circle cx="376.43" cy="484.82" r="3" fill="orange"/>
<text x="379.43" y="481.82" font-size="8" text-anchor="left" dominant-baseline="left" fill="blue">empathetic</text>
<circle cx="443.94" cy="438.85" r="3" fill="orange"/>
<text x="440.94" y="433.85" font-size="8" text-anchor="end" dominant-baseline="left" fill="blue">calm</text>
<circle cx="455.49" cy="425.79" r="3" fill="orange"/>
<text x="452.49" y="425.79" font-size="8" text-anchor="end" dominant-baseline="left" fill="blue">satisfied</text>
<circle cx="464.85" cy="413.24" r="3" fill="orange"/>
<text x="461.85" y="410.24" font-size="8" text-anchor="end" dominant-baseline="left" fill="blue">Content</text>
<circle cx="346.47" cy="493.79" r="3" fill="orange"/>
<text x="346.47" y="487.79" font-size="8" text-anchor="middle" dominant-baseline="left" fill="blue">reverent</text>
<circle cx="457.39" cy="420.13" r="3" fill="orange"/>
<text x="460.39" y="420.13" font-size="8" text-anchor="left" dominant-baseline="hanging" fill="blue">at ease</text>
<circle cx="470.24" cy="400.43" r="3" fill="orange"/>
<text x="473.24" y="400.43" font-size="8" text-anchor="left" dominant-baseline="hanging" fill="blue">serene</text>
<circle cx="444.97" cy="433.4" r="3" fill="orange"/>
<text x="439.97" y="436.4" font-size="8" text-anchor="end" dominant-baseline="hanging" fill="blue">Relaxed</text>
<circle cx="454.82" cy="420.13" r="3" fill="orange"/>
<text x="451.82" y="417.13" font-size="8" text-anchor="end" dominant-baseline="left" fill="blue">friendly</text>
<circle cx="412.42" cy="460.39" r="3" fill="orange"/>
<text x="415.42" y="457.39" font-size="8" text-anchor="left" dominant-baseline="left" fill="blue">peaceful</text>
<circle cx="492.51" cy="333.62" r="3" fill="orange"/>
<text x="489.51" y="336.62" font-size="8" text-anchor="end" dominant-baseline="hanging" fill="blue">glad</text>
<circle cx="345.18" cy="433.4" r="3" fill="orange"/>
<circle cx="465.52" cy="393.58" r="3" fill="orange"/>
<text x="462.52" y="390.58" font-size="8" text-anchor="end" dominant-baseline="hanging" fill="blue">solemn</text>
<circle cx="365.31" cy="460.39" r="3" fill="orange"/>
<text x="362.31" y="457.39" font-size="8" text-anchor="end" dominant-baseline="left" fill="blue">conscientious</text>
<circle cx="418.84" cy="420.13" r="3" fill="orange"/>
<text x="415.84" y="411.13" font-size="8" text-anchor="end" dominant-baseline="hanging" fill="blue">contemplative</text>
<circle cx="471.95" cy="327.19" r="3" fill="orange"/>
<text x="468.95" y="324.19" font-size="8" text-anchor="end" dominant-baseline="left" fill="blue">amorous</text>
<circle cx="438.54" cy="380.3" r="3" fill="orange"/>
<text x="441.54" y="377.3" font-size="8" text-anchor="left" dominant-baseline="left" fill="blue">relaxed</text>
<circle cx="374.73" cy="433.4" r="3" fill="orange"/>
<text x="377.73" y="430.4" font-size="8" text-anchor="left" dominant-baseline="left" fill="blue">polite</text>
<text x="348.18" y="430.4" font-size="8" text-anchor="left" dominant-baseline="left" fill="blue">serious</text>
<circle cx="425.27" cy="360.17" r="3" fill="orange"/>
<text x="428.27" y="357.17" font-size="8" text-anchor="left" dominant-baseline="left" fill="blue">hopeful</text>
<circle cx="398.72" cy="393.58" r="3" fill="orange"/>
<text x="401.72" y="390.58" font-size="8" text-anchor="left" dominant-baseline="left" fill="blue">attentive</text>
<circle cx="345.18" cy="386.72" r="3" fill="orange"/>
<text x="348.18" y="383.72" font-size="8" text-anchor="left" dominant-baseline="left" fill="blue">longing</text>
<circle cx="403.43" cy="340.04" r="3" fill="orange"/>
<text x="406.43" y="337.04" font-size="8" text-anchor="left" dominant-baseline="left" fill="blue">confident</text>
</svg>
